<svg xmlns="http://www.w3.org/2000/svg" version="1.1" width="368px" height="90px" style="shape-rendering:geometricPrecision; text-rendering:geometricPrecision; image-rendering:optimizeQuality; fill-rule:evenodd; clip-rule:evenodd" xmlns:xlink="http://www.w3.org/1999/xlink">
<clipPath id="menu-clip">
<g><path style="opacity:0.439" fill="#625c4c" d="M -0.5,-0.5 C 12.1667,-0.5 24.8333,-0.5 37.5,-0.5C 39.2789,1.34351 41.6122,2.01017 44.5,1.5C 44.8333,1.5 45.1667,1.5 45.5,1.5C 46.5521,3.25605 48.2188,3.92271 50.5,3.5C 60.5,5.5 70.5,7.5 80.5,9.5C 81.4916,9.32842 82.1583,9.66175 82.5,10.5C 78.4659,10.4955 74.4659,10.1621 70.5,9.5C 57.8836,6.62871 45.2169,3.96205 32.5,1.5C 22.0131,0.50558 11.3464,0.172247 0.5,0.5C 0.5,1.83333 0.5,3.16667 0.5,4.5C 0.5,5.16667 0.5,5.83333 0.5,6.5C 0.5,33.8333 0.5,61.1667 0.5,88.5C 0.166667,88.5 -0.166667,88.5 -0.5,88.5C -0.5,58.8333 -0.5,29.1667 -0.5,-0.5 Z"/></g>
<g><path style="opacity:0.004" fill="#000000" d="M 37.5,-0.5 C 37.8333,-0.5 38.1667,-0.5 38.5,-0.5C 39.1667,0.833333 39.8333,0.833333 40.5,-0.5C 41.1667,-0.5 41.8333,-0.5 42.5,-0.5C 43.1667,0.166667 43.8333,0.833333 44.5,1.5C 41.6122,2.01017 39.2789,1.34351 37.5,-0.5 Z"/></g>
<g><path style="opacity:0.937" fill="#2b2721" d="M 32.5,1.5 C 22.1667,1.5 11.8333,1.5 1.5,1.5C 1.73731,2.79105 1.40397,3.79105 0.5,4.5C 0.5,3.16667 0.5,1.83333 0.5,0.5C 11.3464,0.172247 22.0131,0.50558 32.5,1.5 Z"/></g>
<g><path style="opacity:1" fill="#000000" d="M 32.5,1.5 C 45.2169,3.96205 57.8836,6.62871 70.5,9.5C 75.1619,11.1345 80.1619,12.4679 85.5,13.5C 87.5122,13.1604 89.5122,12.8271 91.5,12.5C 97.1553,13.2486 102.822,13.9152 108.5,14.5C 117.616,16.2522 126.949,17.4188 136.5,18C 138.778,18.9862 141.111,19.8195 143.5,20.5C 150.776,19.5345 158.109,19.2012 165.5,19.5C 170.518,19.6133 175.518,19.9466 180.5,20.5C 189.657,21.6576 198.991,21.8243 208.5,21C 210.058,20.79 211.391,20.29 212.5,19.5C 221.991,18.67 231.658,18.17 241.5,18C 246.172,16.8896 250.839,16.0563 255.5,15.5C 256.167,15.5 256.833,15.5 257.5,15.5C 259.167,15.5 260.833,15.5 262.5,15.5C 268.271,16.1128 273.604,15.4461 278.5,13.5C 282.336,12.6223 286.336,11.9557 290.5,11.5C 294.884,11.8256 299.217,11.4922 303.5,10.5C 306.939,10.0935 309.939,9.09352 312.5,7.5C 322.294,5.08595 332.294,3.08595 342.5,1.5C 350.167,1.5 357.833,1.5 365.5,1.5C 365.5,30.1667 365.5,58.8333 365.5,87.5C 301.832,87.3333 238.166,87.5 174.5,88C 238.499,88.5 302.499,88.6667 366.5,88.5C 366.833,88.5 367.167,88.5 367.5,88.5C 367.5,88.8333 367.5,89.1667 367.5,89.5C 244.833,89.5 122.167,89.5 -0.5,89.5C -0.5,89.1667 -0.5,88.8333 -0.5,88.5C -0.166667,88.5 0.166667,88.5 0.5,88.5C 15.837,88.6666 31.1703,88.4999 46.5,88C 31.5037,87.5001 16.5037,87.3334 1.5,87.5C 1.83122,60.3282 1.49788,33.3282 0.5,6.5C 0.5,5.83333 0.5,5.16667 0.5,4.5C 1.40397,3.79105 1.73731,2.79105 1.5,1.5C 11.8333,1.5 22.1667,1.5 32.5,1.5 Z"/></g>
<g><path style="opacity:0.004" fill="#000000" d="M 45.5,1.5 C 47.3057,2.02412 48.9724,2.69079 50.5,3.5C 48.2188,3.92271 46.5521,3.25605 45.5,1.5 Z"/></g>
<g><path style="opacity:0.938" fill="#2a2721" d="M 0.5,6.5 C 1.49788,33.3282 1.83122,60.3282 1.5,87.5C 16.5037,87.3334 31.5037,87.5001 46.5,88C 31.1703,88.4999 15.837,88.6666 0.5,88.5C 0.5,61.1667 0.5,33.8333 0.5,6.5 Z"/></g>
<g><path style="opacity:0.015" fill="#010101" d="M 149.5,16.5 C 136.996,17.1333 124.663,16.1333 112.5,13.5C 108.484,13.7129 104.65,13.0462 101,11.5C 100.586,11.9574 100.086,12.2907 99.5,12.5C 97.3432,11.9495 95.3432,11.2829 93.5,10.5C 95.205,9.46471 96.8716,9.46471 98.5,10.5C 99.7481,9.95978 100.915,9.29311 102,8.5C 108.162,9.61048 114.162,10.9438 120,12.5C 124.369,11.8478 128.869,11.8478 133.5,12.5C 135.413,13.373 137.247,14.373 139,15.5C 140.974,15.3528 142.974,15.0195 145,14.5C 146.622,15.0989 148.122,15.7656 149.5,16.5 Z"/></g>
<g><path style="opacity:0.937" fill="#282521" d="M 70.5,9.5 C 74.4659,10.1621 78.4659,10.4955 82.5,10.5C 85.7814,10.4203 88.7814,11.087 91.5,12.5C 89.5122,12.8271 87.5122,13.1604 85.5,13.5C 80.1619,12.4679 75.1619,11.1345 70.5,9.5 Z"/></g>
<g><path style="opacity:0.439" fill="#66604e" d="M 337.5,-0.5 C 347.5,-0.5 357.5,-0.5 367.5,-0.5C 367.5,29.1667 367.5,58.8333 367.5,88.5C 367.167,88.5 366.833,88.5 366.5,88.5C 366.5,59.1667 366.5,29.8333 366.5,0.5C 358.316,0.174275 350.316,0.507609 342.5,1.5C 332.294,3.08595 322.294,5.08595 312.5,7.5C 304.984,8.55432 297.651,9.88765 290.5,11.5C 286.336,11.9557 282.336,12.6223 278.5,13.5C 273.002,13.9525 267.669,14.6191 262.5,15.5C 260.833,15.5 259.167,15.5 257.5,15.5C 284.405,11.4524 311.072,6.11902 337.5,-0.5 Z"/></g>
<g><path style="opacity:1" fill="#22201b" d="M 312.5,7.5 C 309.939,9.09352 306.939,10.0935 303.5,10.5C 299.217,11.4922 294.884,11.8256 290.5,11.5C 297.651,9.88765 304.984,8.55432 312.5,7.5 Z"/></g>
<g><path style="opacity:0.129" fill="#605e5e" d="M 80.5,9.5 C 80.9169,8.87605 81.5836,8.54272 82.5,8.5C 86.0894,9.64801 89.756,10.3147 93.5,10.5C 95.3432,11.2829 97.3432,11.9495 99.5,12.5C 100.086,12.2907 100.586,11.9574 101,11.5C 104.65,13.0462 108.484,13.7129 112.5,13.5C 111.432,14.4345 110.099,14.7678 108.5,14.5C 102.822,13.9152 97.1553,13.2486 91.5,12.5C 88.7814,11.087 85.7814,10.4203 82.5,10.5C 82.1583,9.66175 81.4916,9.32842 80.5,9.5 Z"/></g>
<g><path style="opacity:0.984" fill="#25221d" d="M 278.5,13.5 C 273.604,15.4461 268.271,16.1128 262.5,15.5C 267.669,14.6191 273.002,13.9525 278.5,13.5 Z"/></g>
<g><path style="opacity:0.319" fill="#3f3b3a" d="M 112.5,13.5 C 124.663,16.1333 136.996,17.1333 149.5,16.5C 151.035,15.6457 152.368,15.6457 153.5,16.5C 149.919,17.2599 146.252,17.7599 142.5,18C 150.159,18.4997 157.826,18.6664 165.5,18.5C 165.5,18.8333 165.5,19.1667 165.5,19.5C 158.109,19.2012 150.776,19.5345 143.5,20.5C 141.111,19.8195 138.778,18.9862 136.5,18C 126.949,17.4188 117.616,16.2522 108.5,14.5C 110.099,14.7678 111.432,14.4345 112.5,13.5 Z"/></g>
<g><path style="opacity:0.475" fill="#6a6864" d="M 167.5,18.5 C 166.833,18.5 166.167,18.5 165.5,18.5C 157.826,18.6664 150.159,18.4997 142.5,18C 146.252,17.7599 149.919,17.2599 153.5,16.5C 158.214,17.2995 162.881,16.6328 167.5,14.5C 168.167,14.8333 168.833,15.1667 169.5,15.5C 168.807,16.5178 168.141,17.5178 167.5,18.5 Z"/></g>
<g><path style="opacity:0.099" fill="#6d6853" d="M 255.5,15.5 C 250.839,16.0563 246.172,16.8896 241.5,18C 231.658,18.17 221.991,18.67 212.5,19.5C 210.833,19.5 209.167,19.5 207.5,19.5C 208.263,18.7321 209.263,18.2321 210.5,18C 225.654,17.7188 240.654,16.8855 255.5,15.5 Z"/></g>
<g><path style="opacity:0.439" fill="#68634f" d="M 165.5,19.5 C 165.5,19.1667 165.5,18.8333 165.5,18.5C 166.167,18.5 166.833,18.5 167.5,18.5C 180.819,19.2773 194.152,19.6106 207.5,19.5C 198.682,20.4933 189.682,20.8266 180.5,20.5C 175.518,19.9466 170.518,19.6133 165.5,19.5 Z"/></g>
<g><path style="opacity:0.937" fill="#2e2b25" d="M 207.5,19.5 C 209.167,19.5 210.833,19.5 212.5,19.5C 211.391,20.29 210.058,20.79 208.5,21C 198.991,21.8243 189.657,21.6576 180.5,20.5C 189.682,20.8266 198.682,20.4933 207.5,19.5 Z"/></g>
<g><path style="opacity:0.937" fill="#2d2a23" d="M 342.5,1.5 C 350.316,0.507609 358.316,0.174275 366.5,0.5C 366.5,29.8333 366.5,59.1667 366.5,88.5C 302.499,88.6667 238.499,88.5 174.5,88C 238.166,87.5 301.832,87.3333 365.5,87.5C 365.5,58.8333 365.5,30.1667 365.5,1.5C 357.833,1.5 350.167,1.5 342.5,1.5 Z"/></g>
</clipPath>
</svg>
