<svg version="1.0" xmlns="http://www.w3.org/2000/svg"
 width="368.000000pt" height="90.000000pt" viewBox="0 0 368.000000 90.000000"
 preserveAspectRatio="xMidYMid meet">
 <clipPath id="menu-clip">
<g transform="translate(0.000000,90.000000) scale(0.100000,-0.100000)"
fill="#000000" stroke="none">
<path d="M0 450 l0 -450 1840 0 1840 0 0 450 0 450 -150 0 c-93 0 -150 -4
-150 -10 0 -5 -22 -10 -50 -10 -27 0 -50 -4 -50 -10 0 -5 -22 -10 -50 -10 -27
0 -50 -4 -50 -10 0 -5 -22 -10 -50 -10 -27 0 -50 -4 -50 -10 0 -5 -22 -10 -50
-10 -27 0 -50 -4 -50 -10 0 -6 -27 -10 -60 -10 -33 0 -60 -4 -60 -10 0 -6 -27
-10 -60 -10 -33 0 -60 -4 -60 -10 0 -6 -33 -10 -80 -10 -47 0 -80 -4 -80 -10
0 -6 -38 -10 -93 -10 -51 0 -97 -4 -103 -9 -5 -5 -72 -12 -149 -15 -77 -4
-187 -9 -245 -12 -58 -3 -151 -3 -208 1 -87 6 -101 9 -91 21 18 22 3 28 -38
15 -45 -14 -60 -15 -133 -6 -30 3 -73 8 -96 9 -22 2 -47 7 -54 11 -15 9 -37
13 -135 20 -38 3 -81 8 -95 11 -32 7 -102 16 -115 14 -16 -1 -145 -2 -207 0
-32 1 -58 6 -58 11 0 5 -22 9 -50 9 -27 0 -50 5 -50 10 0 6 -22 10 -50 10 -27
0 -50 4 -50 9 0 5 -18 11 -41 15 -23 4 -53 13 -68 20 -19 10 -81 14 -238 15
l-213 2 0 -451z"/>
</g></clipPath>
</svg>
